# xmcd CD database file
#
# Track frame offsets:
#	150
#	35071
#	63567
#	83969
#	111990
#	137053
#	167125
#	200189
#	230642
#
# Disc length: 3198 seconds
#
# Revision: 1
# Processed by: cddbd v1.5.2PL0 Copyright (c) Steve Scherf et al.
# Submitted via: CDex 1.51
#
DISCID=890c7c09
DTITLE=POST IMAGE -  87_2012  1
DYEAR=2016
DGENRE=Jazz
TTITLE0=PULSE
TTITLE1=DOUBLE IMAGE
TTITLE2=AXE ROUGE
TTITLE3=SOUS GARONNE
TTITLE4=A L'OMBRE DU BEMOL
TTITLE5=TRACE
TTITLE6=GARDE A VUE
TTITLE7=CALDEIRA
TTITLE8=B.B. LEZARD
EXTD=YEAR: 2016
EXTT0=
EXTT1=
EXTT2=
EXTT3=
EXTT4=
EXTT5=
EXTT6=
EXTT7=
EXTT8=
PLAYORDER=
